<?xml version="1.0" encoding="UTF-8" standalone="no"?>
<!-- Created with Inkscape (http://www.inkscape.org/) -->

<svg
   xmlns:dc="http://purl.org/dc/elements/1.1/"
   xmlns:cc="http://creativecommons.org/ns#"
   xmlns:rdf="http://www.w3.org/1999/02/22-rdf-syntax-ns#"
   xmlns:svg="http://www.w3.org/2000/svg"
   xmlns="http://www.w3.org/2000/svg"
   xmlns:sodipodi="http://sodipodi.sourceforge.net/DTD/sodipodi-0.dtd"
   xmlns:inkscape="http://www.inkscape.org/namespaces/inkscape"
   id="svg3040"
   version="1.1"
   inkscape:version="0.92.2 5c3e80d, 2017-08-06"
   width="134.87038"
   height="81.949585"
   sodipodi:docname="ijcar-logo-white.svg">
  <sodipodi:namedview
     pagecolor="#ffffff"
     bordercolor="#666666"
     borderopacity="1"
     objecttolerance="10"
     gridtolerance="10"
     guidetolerance="10"
     inkscape:pageopacity="0"
     inkscape:pageshadow="2"
     inkscape:window-width="1440"
     inkscape:window-height="856"
     id="namedview3042"
     showgrid="false"
     inkscape:zoom="1"
     inkscape:cx="-144.96192"
     inkscape:cy="9.779298"
     inkscape:window-x="0"
     inkscape:window-y="1"
     inkscape:window-maximized="0"
     inkscape:current-layer="svg3040"
     fit-margin-top="0"
     fit-margin-left="0"
     fit-margin-right="0"
     fit-margin-bottom="0" />
  <metadata
     id="metadata3046">
    <rdf:RDF>
      <cc:Work
         rdf:about="">
        <dc:format>image/svg+xml</dc:format>
        <dc:type
           rdf:resource="http://purl.org/dc/dcmitype/StillImage" />
        <dc:title></dc:title>
      </cc:Work>
    </rdf:RDF>
  </metadata>
  <defs
     id="defs3044" />
  <path
     inkscape:connector-curvature="0"
     id="path3050"
     d="m 22.129675,80.713106 c -0.878067,-7.103509 0.268227,-14.314236 0.104766,-21.464955 0.0212,-7.036962 0.476573,-14.15637 -0.994679,-21.064981 0.130711,-5.182314 -1.40148,-12.101381 1.581921,-16.071608 5.199093,0.164022 2.772328,8.822247 3.625759,12.606363 0.39589,13.098183 -0.354115,26.254328 0.862151,39.314589 2.37093,2.836332 -2.127346,11.000502 -5.179918,6.680592 z M 105.4795,59.756321 c -4.36005,-3.43065 -1.60555,-10.867434 -2.50301,-15.868494 1.04339,-3.911613 -2.24278,-12.30153 2.27664,-13.490999 4.29744,1.262657 1.61897,11.446494 3.62402,10.90851 4.02777,-4.61448 9.40266,-7.950497 14.59285,-11.142363 4.38345,-3.857356 12.46939,-0.93252 11.28286,5.695704 -3.86808,4.271495 -5.75331,-5.359098 -10.07709,-1.062508 -5.63447,2.794605 -11.07416,7.031809 -13.81982,12.729431 -3.5609,2.494545 -0.99891,12.882898 -5.37645,12.230719 z M 65.690105,56.242712 c -6.342801,0.20468 -3.256467,-11.31346 -10.155108,-7.054687 -6.633693,1.478226 -13.645958,2.124727 -20.382468,1.245982 -5.094003,-3.358778 -6.388149,-10.678904 -2.893098,-15.690638 3.151635,-6.214828 9.437277,-13.327196 17.191113,-11.358977 4.103602,-0.258847 10.897266,9.000647 4.51019,8.595349 -2.893239,-3.862233 -9.023978,-5.702463 -12.316497,-1.997176 -3.443353,3.594713 -8.034539,9.153834 -5.229688,14.325102 4.87563,3.676186 11.578208,1.00485 17.080876,0.417333 3.944383,-1.016633 9.9832,-1.484219 12.40275,-3.933389 3.31735,-3.752328 9.00904,-5.435636 13.61619,-7.499031 2.02773,-4.050614 4.66553,-6.041746 8.83936,-7.773069 6.023774,-2.412093 10.079934,4.385158 8.944654,9.689043 -0.18117,6.476294 0.64737,13.142273 -0.74458,19.486539 -3.36003,2.089629 -6.0352,-4.140884 -6.88063,-5.547237 -2.220604,-3.56376 -4.759004,-6.332475 -8.472724,-9.17777 -4.87343,-2.989521 -9.52392,2.127252 -12.91717,5.147131 -4.52958,2.153896 -2.9009,9.19478 2.20614,6.318522 5.60733,-0.150342 11.0558,-2.262235 16.68525,-1.82204 3.071974,4.464085 -6.16774,5.652209 -9.52302,5.873575 -4.14152,0.829667 -7.67272,2.337966 -11.96154,0.755438 z m 26.667564,-21.31557 c 1.22515,-5.244087 -4.831114,-6.156234 -7.075344,-1.821139 -2.31027,2.978464 3.32313,5.580938 5.047354,8.215116 1.77912,2.72323 2.06907,1.153441 2.05475,-1.293506 0.10216,-1.674511 0.46411,-3.4757 -0.0268,-5.100471 z M 8.800231,54.815996 C 8.31098,44.772904 8.784661,34.704347 8.840541,24.650604 c 5.536394,-1.062202 4.475528,6.120382 4.717047,9.705372 -0.08233,6.745267 0.572766,13.580708 -0.413718,20.2658 -0.625323,1.310356 -3.704488,1.671678 -4.343641,0.19422 z M 0.93892602,11.868527 C -2.871324,7.4448605 6.220392,3.5035285 5.093411,9.7573825 5.487994,12.403349 2.875327,13.311257 0.93892602,11.868527 Z M 17.956784,4.9040495 c -5.148168,-6.2401228 6.183855,-6.7753748 4.734633,-0.157905 -0.617772,2.466955 -3.567679,1.691437 -4.734633,0.157905 z"
     style="opacity:1;fill:#ffffff;stroke-width:0.75" />
</svg>
