<?xml version="1.0" encoding="UTF-8" standalone="no"?>
<!-- Created with Inkscape (http://www.inkscape.org/) -->

<svg
   xmlns:dc="http://purl.org/dc/elements/1.1/"
   xmlns:cc="http://creativecommons.org/ns#"
   xmlns:rdf="http://www.w3.org/1999/02/22-rdf-syntax-ns#"
   xmlns:svg="http://www.w3.org/2000/svg"
   xmlns="http://www.w3.org/2000/svg"
   xmlns:sodipodi="http://sodipodi.sourceforge.net/DTD/sodipodi-0.dtd"
   xmlns:inkscape="http://www.inkscape.org/namespaces/inkscape"
   id="svg3040"
   version="1.1"
   inkscape:version="0.92.2 5c3e80d, 2017-08-06"
   width="210"
   height="130"
   sodipodi:docname="ijcar-logo.svg">
  <metadata
     id="metadata3046">
    <rdf:RDF>
      <cc:Work
         rdf:about="">
        <dc:format>image/svg+xml</dc:format>
        <dc:type
           rdf:resource="http://purl.org/dc/dcmitype/StillImage" />
        <dc:title></dc:title>
      </cc:Work>
    </rdf:RDF>
  </metadata>
  <defs
     id="defs3044" />
  <sodipodi:namedview
     pagecolor="#ffffff"
     bordercolor="#666666"
     borderopacity="1"
     objecttolerance="10"
     gridtolerance="10"
     guidetolerance="10"
     inkscape:pageopacity="0"
     inkscape:pageshadow="2"
     inkscape:window-width="1440"
     inkscape:window-height="856"
     id="namedview3042"
     showgrid="false"
     inkscape:zoom="1"
     inkscape:cx="123.88006"
     inkscape:cy="65.073753"
     inkscape:window-x="286"
     inkscape:window-y="102"
     inkscape:window-maximized="0"
     inkscape:current-layer="svg3040" />
  <path
     style="fill:#000000"
     d="m 44.541422,118.25 c -1.170756,-9.47134 0.357636,-19.085643 0.139688,-28.619935 0.02827,-9.382615 0.635431,-18.875159 -1.326239,-28.086641 0.174282,-6.909752 -1.868639,-16.135174 2.109228,-21.428811 6.932125,0.218696 3.696438,11.762997 4.834346,16.808484 0.527853,17.464245 -0.472154,35.005771 1.149535,52.419453 3.16124,3.78177 -2.836462,14.66733 -6.906558,8.90745 z M 155.67452,90.307625 c -5.81341,-4.574199 -2.14074,-14.489912 -3.33735,-21.157992 1.39119,-5.215483 -2.99038,-16.40204 3.03552,-17.987998 5.72992,1.683542 2.15863,15.261992 4.83203,14.54468 5.37036,-6.15264 12.53687,-10.600663 19.45713,-14.856484 5.8446,-5.143142 16.62585,-1.24336 15.04381,7.594272 -5.15744,5.695327 -7.67108,-7.145464 -13.43612,-1.416677 C 173.75691,60.753566 166.504,66.403171 162.84312,74 c -4.74787,3.32606 -1.33189,17.177197 -7.1686,16.307625 z M 102.62199,85.622814 C 94.164928,85.89572 98.28004,70.5382 89.081852,76.216564 80.236927,78.187532 70.887241,79.049533 61.905227,77.877873 55.113224,73.399503 53.387696,63.639335 58.047764,56.957023 62.249943,48.670585 70.630799,39.187428 80.969247,41.81172 c 5.47147,-0.345129 14.529689,12.000863 6.013587,11.460466 -3.857652,-5.149645 -12.031971,-7.603284 -16.421996,-2.662902 -4.591137,4.792951 -10.712719,12.205112 -6.972917,19.100136 6.50084,4.901582 15.43761,1.3398 22.774501,0.556444 5.259178,-1.355511 13.310938,-1.978959 16.536998,-5.244519 4.42314,-5.003103 12.01206,-7.247514 18.15492,-9.998707 2.70364,-5.400819 6.22071,-8.055662 11.78582,-10.364093 8.03169,-3.216123 13.4399,5.846878 11.9262,12.918725 -0.24157,8.635058 0.86316,17.52303 -0.99278,25.982052 -4.48004,2.786172 -8.04693,-5.521179 -9.17417,-7.396317 -2.9608,-4.75168 -6.34533,-8.4433 -11.29696,-12.237026 -6.49791,-3.986028 -12.69856,2.836336 -17.22289,6.862841 -6.03944,2.871862 -3.86787,12.259707 2.94152,8.424696 7.47644,-0.200456 14.74106,-3.016313 22.24699,-2.429386 4.09597,5.952113 -8.22365,7.536278 -12.69736,7.831433 -5.52202,1.106223 -10.23029,3.117288 -15.94872,1.007251 z m 35.55675,-28.420761 c 1.63353,-6.992116 -6.44148,-8.208312 -9.43378,-2.428185 -3.08036,3.971286 4.43083,7.441251 6.7298,10.953488 2.37215,3.630973 2.75875,1.537921 2.73966,-1.724674 0.13622,-2.232682 0.61882,-4.634267 -0.0357,-6.800629 z M 26.76883,83.720526 c -0.652334,-13.39079 -0.02076,-26.815532 0.05375,-40.220523 7.381858,-1.416269 5.96737,8.160509 6.289396,12.940496 -0.109777,8.993689 0.763687,18.107611 -0.551624,27.021067 -0.833764,1.747141 -4.939318,2.228903 -5.791522,0.25896 z M 16.28709,26.457233 c -5.080333,-5.898222 7.041955,-11.153331 5.539314,-2.81486 0.52611,3.527956 -2.957446,4.7385 -5.539314,2.81486 z m 22.690478,-9.28597 c -6.864225,-8.3201639 8.245139,-9.0338335 6.312844,-0.21054 -0.823696,3.289273 -4.756906,2.255249 -6.312844,0.21054 z"
     id="path3050"
     inkscape:connector-curvature="0" />
</svg>
